<?xml version="1.0" encoding="utf-8"?>
<!-- Generator: Adobe Illustrator 17.1.0, SVG Export Plug-In . SVG Version: 6.00 Build 0)  -->
<!DOCTYPE svg PUBLIC "-//W3C//DTD SVG 1.1//EN" "http://www.w3.org/Graphics/SVG/1.1/DTD/svg11.dtd">
<svg version="1.1" id="Layer_1" xmlns="http://www.w3.org/2000/svg" xmlns:xlink="http://www.w3.org/1999/xlink" x="0px" y="0px"
	 viewBox="0 0 84.4 84.4" enable-background="new 0 0 84.4 84.4" xml:space="preserve">
<path fill="#7D7D7D" d="M42.2-0.1C18.8-0.1-0.1,18.8-0.1,42.2s18.9,42.3,42.3,42.3c23.4,0,42.3-18.9,42.3-42.3S65.6-0.1,42.2-0.1z
	 M65.8,32.5c0,0.5,0,1,0,1.6c0,16.1-12.2,34.6-34.6,34.6c-6.9,0-13.3-2-18.6-5.5c1,0.1,1.9,0.2,2.9,0.2c5.7,0,10.9-1.9,15.1-5.2
	c-5.3-0.1-9.8-3.6-11.4-8.4c0.7,0.1,1.5,0.2,2.3,0.2c1.1,0,2.2-0.1,3.2-0.4c-5.6-1.1-9.8-6-9.8-11.9c0-0.1,0-0.1,0-0.2
	c1.6,0.9,3.5,1.5,5.5,1.5c-3.3-2.2-5.4-5.9-5.4-10.1c0-2.2,0.6-4.3,1.6-6.1c6,7.4,15,12.2,25.1,12.7c-0.2-0.9-0.3-1.8-0.3-2.8
	c0-6.7,5.4-12.2,12.2-12.2c3.5,0,6.7,1.5,8.9,3.8c2.8-0.5,5.4-1.6,7.7-3c-0.9,2.8-2.8,5.2-5.3,6.7c2.5-0.3,4.8-0.9,7-1.9
	C70.2,28.6,68.2,30.8,65.8,32.5z"/>
</svg>
