<?xml version="1.0" encoding="utf-8"?>
<!-- Generator: Adobe Illustrator 17.1.0, SVG Export Plug-In . SVG Version: 6.00 Build 0)  -->
<!DOCTYPE svg PUBLIC "-//W3C//DTD SVG 1.1//EN" "http://www.w3.org/Graphics/SVG/1.1/DTD/svg11.dtd">
<svg version="1.1" id="Layer_1" xmlns="http://www.w3.org/2000/svg" xmlns:xlink="http://www.w3.org/1999/xlink" x="0px" y="0px"
	 viewBox="0 0 252 353" enable-background="new 0 0 252 353" xml:space="preserve">
<g>
	<path fill="#939393" d="M126.5,16.6c32,0,58.2,24.4,60.3,56.4h16.1c-2.1-41-35.5-72.6-76.4-72.6S52.2,32,50.1,73h16.1
		C68.3,41,94.5,16.6,126.5,16.6z"/>
	<polygon fill="#939393" points="227.3,81 202.9,81 186.8,81 66.2,81 50.1,81 25.7,81 1.5,353 251.5,353 	"/>
</g>
<g>
	<path fill="#FFFFFF" d="M170.2,92.7l-22.5,16.5l-42,77.2l54.4,29.6l42-77.2l1-28.2L170.2,92.7z M178,122c-3.9,0-7-3.1-7-7
		s3.1-7,7-7s7,3.1,7,7S181.9,122,178,122z"/>
</g>
</svg>
