<?xml version="1.0" encoding="utf-8"?>
<!-- Generator: Adobe Illustrator 17.1.0, SVG Export Plug-In . SVG Version: 6.00 Build 0)  -->
<!DOCTYPE svg PUBLIC "-//W3C//DTD SVG 1.1//EN" "http://www.w3.org/Graphics/SVG/1.1/DTD/svg11.dtd">
<svg version="1.1" id="Layer_1" xmlns="http://www.w3.org/2000/svg" xmlns:xlink="http://www.w3.org/1999/xlink" x="0px" y="0px"
	 viewBox="0 0 84.4 84.4" enable-background="new 0 0 84.4 84.4" xml:space="preserve">
<g>
	<path fill="#7D7D7D" d="M42.2,0.2c-23.2,0-42,18.8-42,42c0,23.2,18.8,42,42,42c23.2,0,42-18.8,42-42C84.2,19,65.4,0.2,42.2,0.2z
		 M55.5,23.7c-2.5,0-5.2,0-6.4,0c-1.3,0-2.6,1.3-2.6,2.3c0,1,0,6.6,0,6.6s7.9,0,9,0c-0.4,5-1.1,9.6-1.1,9.6h-7.9v28.5H34.7V42.2
		h-5.7v-9.6h5.7c0,0,0-6.4,0-7.8c0-1.4-0.3-11,12.1-11c1.7,0,5.4,0,8.7,0C55.5,17.9,55.5,22.4,55.5,23.7z"/>
</g>
</svg>
