<?xml version="1.0" encoding="utf-8"?>
<!-- Generator: Adobe Illustrator 17.1.0, SVG Export Plug-In . SVG Version: 6.00 Build 0)  -->
<!DOCTYPE svg PUBLIC "-//W3C//DTD SVG 1.1//EN" "http://www.w3.org/Graphics/SVG/1.1/DTD/svg11.dtd">
<svg version="1.1" id="Layer_1" xmlns="http://www.w3.org/2000/svg" xmlns:xlink="http://www.w3.org/1999/xlink" x="0px" y="0px"
	 viewBox="0 0 84.4 84.4" enable-background="new 0 0 84.4 84.4" xml:space="preserve">
<g>
	<path fill="#7D7D7D" d="M42.2,0.4C19.2,0.4,0.5,19.1,0.5,42.2c0,17.1,10.3,31.8,25,38.3c-0.1-2.9,0-6.4,0.7-9.6
		c0.8-3.4,5.4-22.8,5.4-22.8s-1.3-2.7-1.3-6.6c0-6.2,3.6-10.8,8.1-10.8c3.8,0,5.6,2.9,5.6,6.3c0,3.8-2.4,9.5-3.7,14.8
		c-1,4.4,2.2,8,6.6,8c7.9,0,13.2-10.2,13.2-22.2c0-9.2-6.2-16-17.4-16c-12.7,0-20.6,9.4-20.6,20c0,3.6,1.1,6.2,2.8,8.2
		c0.8,0.9,0.9,1.3,0.6,2.3c-0.2,0.8-0.7,2.6-0.9,3.4c-0.3,1.1-1.1,1.4-2.1,1c-5.8-2.4-8.6-8.8-8.6-16c0-11.9,10-26.1,29.9-26.1
		c15.9,0,26.4,11.5,26.4,23.9c0,16.4-9.1,28.6-22.5,28.6c-4.5,0-8.8-2.4-10.2-5.2c0,0-2.4,9.6-2.9,11.5c-0.9,3.2-2.6,6.4-4.2,8.9
		c3.8,1.1,7.7,1.7,11.8,1.7C65.3,84,84,65.3,84,42.2C84,19.1,65.3,0.4,42.2,0.4z"/>
</g>
</svg>
