<?xml version="1.0" encoding="utf-8"?>
<!-- Generator: Adobe Illustrator 17.1.0, SVG Export Plug-In . SVG Version: 6.00 Build 0)  -->
<!DOCTYPE svg PUBLIC "-//W3C//DTD SVG 1.1//EN" "http://www.w3.org/Graphics/SVG/1.1/DTD/svg11.dtd">
<svg version="1.1" id="Layer_1" xmlns="http://www.w3.org/2000/svg" xmlns:xlink="http://www.w3.org/1999/xlink" x="0px" y="0px"
	 viewBox="0 0 960 560" enable-background="new 0 0 960 560" xml:space="preserve">
<g enable-background="new    ">
	<path d="M100.9,82.6V87h-17v-5.3c0-14.5-5.5-23-18.4-23s-18.4,8.5-18.4,22.8c0,36.1,54,39.6,54,84.9c0,24.4-11.7,40.2-36.3,40.2
		c-24.6,0-36.1-15.9-36.1-40.2v-9.2h16.8v10.1c0,14.5,6,23,18.9,23s18.9-8.5,18.9-23c0-35.9-53.8-39.3-53.8-84.6
		c0-24.8,11.5-40.2,35.6-40.2C89.4,42.4,100.9,58.3,100.9,82.6z"/>
	<path d="M134.7,132.6V205h-17.9V44h17.9v72.4h39.6V44h17.9v161h-17.9v-72.4H134.7z"/>
	<path d="M228.5,44v161h-17.9V44H228.5z"/>
	<path d="M262.8,205h-16.1V44h22.8l37.3,116.4V44h15.9v161H304L262.8,74.8V205z"/>
	<path d="M369.5,147.3L335.5,44h18.6l25.1,79.1L404.5,44h17l-34.3,103.3V205h-17.7V147.3z"/>
	<path d="M493.3,205V60.3h-29.7V44h77v16.3H511V205H493.3z"/>
	<path d="M570.8,132.6V205h-17.9V44h17.9v72.4h39.6V44h17.9v161h-17.9v-72.4H570.8z"/>
	<path d="M664.6,44v161h-17.9V44H664.6z"/>
	<path d="M698.9,205h-16.1V44h22.8l37.3,116.4V44h15.9v161H740L698.9,74.8V205z"/>
	<path d="M848.1,82.9v13.8h-17V82c0-14.5-5.8-23.2-18.9-23.2c-12.9,0-18.9,8.7-18.9,23.2v85.1c0,14.5,6,23.2,18.9,23.2
		c13.1,0,18.9-8.7,18.9-23.2v-32.2h-16.6v-16.1h33.6v47.4c0,24.4-11.5,40.5-36.3,40.5c-24.6,0-36.1-16.1-36.1-40.5V82.9
		c0-24.4,11.5-40.5,36.1-40.5C836.6,42.4,848.1,58.5,848.1,82.9z"/>
	<path d="M934.8,82.6V87h-17v-5.3c0-14.5-5.5-23-18.4-23c-12.9,0-18.4,8.5-18.4,22.8c0,36.1,54,39.6,54,84.9
		c0,24.4-11.7,40.2-36.3,40.2s-36.1-15.9-36.1-40.2v-9.2h16.8v10.1c0,14.5,6,23,18.9,23s18.9-8.5,18.9-23
		c0-35.9-53.8-39.3-53.8-84.6c0-24.8,11.5-40.2,35.6-40.2C923.3,42.4,934.8,58.3,934.8,82.6z"/>
</g>
<g enable-background="new    ">
	<path d="M75.2,443.6l-2,31.1c0,2.8,0.4,5.1,1.3,6.8l-2.8,5.9c-0.5,9-3.9,18.1-10.2,27.4c-6.3,9.2-13.1,16.6-20.5,22
		c-5.3,0-7.9-2.4-7.9-7.2c0.2-2.3,2.4-4.8,6.5-7.5c4.1-2.7,6.5-4.3,7.2-5.1c11.1-11.1,16.6-30.4,16.6-57.9c0-13.1-0.6-31.7-1.8-56
		c-1.2-24.3-2.1-45.7-2.6-64.2c-1.4-61.4-3.4-99.5-6.1-114.3l-20.2,3.5c-1.5,0-2.7-0.6-3.7-1.8c-1-1.2-1.5-2.5-1.5-4
		c0-6.3,17.4-9.4,52.1-9.4c1.7,0,3.2,0.6,4.3,1.8c1.2,1.2,1.8,2.6,1.8,4.2c0,3.8-5.9,5.7-17.6,5.7h-4.1l-0.4,7.2
		c0,6.7,0.8,16.6,2.3,30c1.5,13.3,2.3,25.9,2.3,37.8c0,11.9,1.1,34.6,3.4,68.1C74.1,401.3,75.2,426.6,75.2,443.6z M52.9,504.6
		c0.2,0,0.4,0.1,0.4,0.4L52.9,504.6z"/>
	<path d="M137.5,488.7l22.7-1.3c11.8,0,17.7,2,17.7,6.1c-2.1,3.7-5.9,6.1-11.3,7.1c-5.4,1-10.7,1.6-15.7,1.6h-8.9
		c-11.3,0-17.9-0.9-19.6-2.7c-1.7-1.8-2.6-3.7-2.6-5.6l3.5-14.1v-0.7c-1-5.1-1.5-10.6-1.5-16.6l1.8-38.6l-2.2-81l1.8-75.2
		c0-4.6-0.8-11.3-2.4-20.2c-1.6-8.9-2.5-15.5-2.6-19.7l6.8-10.5l26.4-3.3l1.3,1.1c5.9,0,9.3,0.8,10.3,2.3c0.9,1.5,1.4,3.2,1.4,4.9
		c0,4.8-4.6,7.2-13.7,7.2l-10.2-0.7c-5.5,0-8.3,1.5-8.3,4.4l3,64.3l-1.8,47.3l-0.7,0.7l2.2,1.3l20.9-3.9c1.4,0,2.8,0.7,4.4,2.1
		c1.6,1.4,2.4,2.9,2.4,4.3c0,5.1-1.9,7.6-5.7,7.6l-8.7-0.4c-9.6,0-14.4,2.4-14.4,7.2l2.8,31.8l-1.3,2.2v76.9c1.4,1.6,2,5.1,2,10.5
		V488.7z"/>
	<path d="M274,305.3l-0.4,0.7c-0.9,4.2-1.4,10.5-1.5,18.9c-0.1,8.4-1.2,17.6-3.3,27.4c-2.1,9.8-4.6,33.2-7.5,70.3
		c-2.9,37.1-4.3,62.5-4.3,76.2c0,0.9-0.7,2.1-2.2,3.7c-1.5,1.6-3.1,2.4-4.7,2.4c-1.7,0-3.2-0.8-4.5-2.5c-1.4-1.7-2.3-4.1-2.9-7.2
		c-0.6-3.1-1-5.9-1.2-8.2c-0.2-4.1-0.4-8.9-0.6-14.4c-0.1-5.5-0.6-11.2-1.4-17c-0.8-5.8-1.9-12.3-3.2-19.5
		c-1.4-7.2-2.4-13.2-3.1-17.9c-0.7-4.7-3-23.9-6.9-57.6c-10.5-89.1-17.1-135.9-20-140.3c1.8-3.3,4.3-5,7.3-5c3,0,5.5,2.3,7.3,6.9
		c1.8,4.6,3.2,10.7,4.2,18.2c0.9,7.5,1.6,14.7,2.1,21.6c0.5,6.9,0.9,13.9,1.2,20.9c0.3,7,0.9,15.4,1.8,25.1
		c0.9,9.7,3.8,31.3,8.7,64.7c4.9,33.4,8.1,56.8,9.7,70.1h0.7c0-12,1-25.7,2.9-41.1c1.9-15.5,3.1-25.2,3.4-29.1
		c0.4-3.9,1.1-8.8,2.3-14.5c1.2-5.7,1.9-10.2,2.1-13.5c0.2-3.3,0.8-12.6,1.6-28c0.8-15.4,1.4-25.4,1.9-30.1
		c0.5-4.7,1.1-9.8,1.9-15.4c0.8-5.6,1.2-10,1.2-13l-0.4-6.8c0-3.2,1.8-5.7,5.4-7.4c7.5,0,11.3,2.2,11.3,6.7l-1.8,5
		c0,28.1,5.2,61.6,15.7,100.6c10.5,38.9,15.7,71.8,15.7,98.5l1.1,0.7c0.7-3,1.4-10.5,2.1-22.7c0.7-12.2,2.6-31.1,5.9-56.6
		c3.3-25.5,5.2-43.5,5.8-54c0.6-10.5,2.2-26.7,4.9-48.8c2.6-22.1,4-39.1,4-51l-0.4-7.2c0-6,3.3-9.1,9.8-9.1c1.6,0,3.2,0.6,4.8,1.8
		c1.6,1.2,2.4,2.8,2.4,4.9c0,2.1-1.4,4.3-4.1,6.5c0.2,0.5,0.4,1.3,0.4,2.4c0,1.6-0.5,4.4-1.5,8.3c-1.7,14.7-4.2,42.5-7.5,83.5
		c-3.3,41-7.4,76.2-12.4,105.6c-5,29.4-7.5,53.2-7.5,71.5v5.5c0,3-0.4,5.2-1.3,6.8c-0.9,1.6-2.7,2.4-5.5,2.4
		c-5.9,0-10.5-19.4-13.7-58.2c-1-11.7-4.9-34.1-11.7-67.3c-6.8-33.2-11.2-57.6-13.2-73.4L274,305.3z M313.7,456.4
		c-0.5,0-0.7,0.2-0.7,0.6L313.7,456.4z"/>
	<path d="M405,488.7l22.7-1.3c11.8,0,17.7,2,17.7,6.1c-2.1,3.7-5.9,6.1-11.3,7.1c-5.4,1-10.7,1.6-15.7,1.6h-8.9
		c-11.3,0-17.9-0.9-19.6-2.7c-1.7-1.8-2.6-3.7-2.6-5.6l3.5-14.1v-0.7c-1-5.1-1.5-10.6-1.5-16.6l1.8-38.6l-2.2-81l1.8-75.2
		c0-4.6-0.8-11.3-2.4-20.2c-1.6-8.9-2.5-15.5-2.6-19.7l6.8-10.5l26.4-3.3l1.3,1.1c5.9,0,9.3,0.8,10.3,2.3c0.9,1.5,1.4,3.2,1.4,4.9
		c0,4.8-4.6,7.2-13.7,7.2l-10.2-0.7c-5.5,0-8.3,1.5-8.3,4.4l3,64.3l-1.8,47.3l-0.7,0.7l2.2,1.3l20.9-3.9c1.4,0,2.8,0.7,4.4,2.1
		c1.6,1.4,2.4,2.9,2.4,4.3c0,5.1-1.9,7.6-5.7,7.6l-8.7-0.4c-9.6,0-14.4,2.4-14.4,7.2l2.8,31.8l-1.3,2.2v76.9c1.4,1.6,2,5.1,2,10.5
		V488.7z"/>
	<path d="M514.3,500l-11.8-0.4c-1.4,0-3.1,0.8-5.2,2.3c-2.1,1.5-4,2.3-5.7,2.3c-1.7,0-3.5-0.8-5.3-2.4c-1.8-1.6-2.7-3.4-2.7-5.5
		l2.2-17.2l-3.7-107.4l-3.9-158.3c0-2.6,1.7-3.9,5-3.9c4.8,0,7.2,2.3,7.2,6.8c0,58.3,0.6,95.2,1.8,110.8c1.2,15.6,1.8,25.2,1.8,28.9
		c0,3.7-0.2,8.6-0.7,14.8l1.1,1.5c-0.5,6.7-0.7,13.4-0.7,20.2c0,6.8,0.6,19.9,1.9,39.3c1.3,19.4,2.1,33.1,2.3,41.2
		c-1,1.5-1.5,4-1.5,7.6c0,3.6,0.6,6,1.8,7.2c1.2,1.2,3.7,1.8,7.5,1.8c3.8,0,6.4-0.8,7.8-2.4h14.1c3.4,1.7,5.2,3.7,5.2,5.9
		c0,4.9-1.7,7.4-5.2,7.4c-0.9,0-2.8-0.5-5.7-1.5C520.7,499.8,518.1,500,514.3,500z"/>
	<path d="M602.1,500l-11.8-0.4c-1.4,0-3.1,0.8-5.2,2.3c-2.1,1.5-4,2.3-5.7,2.3c-1.7,0-3.5-0.8-5.3-2.4c-1.8-1.6-2.7-3.4-2.7-5.5
		l2.2-17.2L570,371.7l-3.9-158.3c0-2.6,1.7-3.9,5-3.9c4.8,0,7.2,2.3,7.2,6.8c0,58.3,0.6,95.2,1.8,110.8c1.2,15.6,1.8,25.2,1.8,28.9
		c0,3.7-0.2,8.6-0.7,14.8l1.1,1.5c-0.5,6.7-0.7,13.4-0.7,20.2c0,6.8,0.6,19.9,1.9,39.3c1.3,19.4,2.1,33.1,2.3,41.2
		c-1,1.5-1.5,4-1.5,7.6c0,3.6,0.6,6,1.8,7.2c1.2,1.2,3.7,1.8,7.5,1.8c3.8,0,6.4-0.8,7.8-2.4h14.1c3.4,1.7,5.2,3.7,5.2,5.9
		c0,4.9-1.7,7.4-5.2,7.4c-0.9,0-2.8-0.5-5.7-1.5C608.5,499.8,605.9,500,602.1,500z"/>
	<path d="M672.6,488.7l22.7-1.3c11.8,0,17.7,2,17.7,6.1c-2.1,3.7-5.9,6.1-11.3,7.1c-5.4,1-10.7,1.6-15.7,1.6h-8.9
		c-11.3,0-17.9-0.9-19.6-2.7c-1.7-1.8-2.6-3.7-2.6-5.6l3.5-14.1v-0.7c-1-5.1-1.5-10.6-1.5-16.6l1.8-38.6l-2.2-81l1.8-75.2
		c0-4.6-0.8-11.3-2.4-20.2c-1.6-8.9-2.5-15.5-2.6-19.7l6.8-10.5l26.4-3.3l1.3,1.1c5.9,0,9.3,0.8,10.3,2.3c0.9,1.5,1.4,3.2,1.4,4.9
		c0,4.8-4.6,7.2-13.7,7.2l-10.2-0.7c-5.5,0-8.3,1.5-8.3,4.4l3,64.3l-1.8,47.3l-0.7,0.7l2.2,1.3l20.9-3.9c1.4,0,2.8,0.7,4.4,2.1
		c1.6,1.4,2.4,2.9,2.4,4.3c0,5.1-1.9,7.6-5.7,7.6l-8.7-0.4c-9.6,0-14.4,2.4-14.4,7.2l2.8,31.8l-1.3,2.2v76.9c1.4,1.6,2,5.1,2,10.5
		V488.7z"/>
	<path d="M750,222.5l-0.7-6.8c0-2.2,2.5-3.3,7.6-3.3c10.4,0,18.3,2.9,23.8,8.7c5.5,5.8,9.1,12,10.9,18.7c1.8,6.7,3.2,11.7,4.2,15.2
		c2.1,7.5,3.1,13.4,3.1,17.6c0,12.7-3.5,28-10.5,45.8c-4.6,11.3-6.8,17.6-6.8,18.9c0,12.3,4.9,37.2,14.8,74.6
		c9.9,37.4,17.9,63.9,24.2,79.6c0,8.3-1.7,12.4-5,12.4c-2.6,0-4.7-1.1-6.4-3.4s-2.7-3.6-3.1-4c-0.7-9.9-4-23.6-9.7-41.1
		c-5.7-17.6-9.2-29.3-10.5-35.1c-1.3-5.9-3.6-17.8-6.9-35.8c-3.3-18-6.3-31.8-8.9-41.4l-3-2.2l-7.2,3v142l0.7,9.4
		c0,5.1-2.3,7.6-6.8,7.6c-1.8,0-3.4-0.6-4.6-1.8c-1.2-1.2-1.8-2.7-1.8-4.5l1.3-2l1.5-229.8V222.5z M760.6,224.4l-1.8,82.6
		c0,10.8,0.4,18.9,1.1,24.2h0.7c1.8,0,5.1-2.6,9.9-7.8c4.7-5.2,8-9.3,9.8-12.4c1.8-3.1,3.2-8.2,4.3-15.3c1.1-7.1,1.7-13.1,1.7-17.8
		c0-4.7-0.3-9.7-1-14.9c-0.7-5.2-1.8-10.8-3.2-16.8c-1.5-6-3.8-11.1-7-15.1c-3.2-4-7-6-11.3-6V224L760.6,224.4z"/>
	<path d="M890.3,504.6c-3.6,0-5.4-3.1-5.4-9.2l1.8-73l-2.6-30.7c0-4.1-0.8-10-2.3-17.7c-1.5-7.8-2.3-13.1-2.3-16.1s-0.3-6.2-1-9.8
		c-0.7-3.6-1.6-7.9-2.9-12.9c-1.2-5.1-2.1-9-2.7-11.7c-0.6-2.8-2-10.3-4.3-22.6c-5.1-25.8-9.3-44.5-12.8-56.3
		c-3.5-11.8-5.3-19.3-5.3-22.5c0-5.2,2.5-7.8,7.6-7.8l4.4,3c0.6,10.2,3.9,30.1,9.9,59.7c6,29.6,10.6,46.7,14,51.2
		c3.9-11.6,6.7-26.1,8.1-43.5c1.5-17.4,2.7-30.7,3.7-39.7c2.2-19.7,5.7-29.6,10.5-29.6c3.8,0,5.7,1.4,5.7,4.1c0,2-0.5,4.7-1.5,8.2
		c-1,3.5-1.7,6.6-2.1,9.3c-0.4,2.7-1.8,10.8-4.3,24.2c-2.4,13.4-4.2,23.5-5.3,30.3c-3.3,20.1-5,38.5-5,55.3l1.1,12.4l-2.4,5.7v3
		l2.8,45.5c0,34.1-0.2,59.7-0.7,76.5l1.1,1.1l0.4,2.6c0,2.8-0.7,5.4-2.1,7.7C895.1,503.5,893,504.6,890.3,504.6z"/>
</g>
</svg>
